<?xml version="1.0" encoding="utf-8"?>
<!-- Generator: Adobe Illustrator 24.1.0, SVG Export Plug-In . SVG Version: 6.00 Build 0)  -->
<svg version="1.1" id="Layer_1" xmlns="http://www.w3.org/2000/svg" xmlns:xlink="http://www.w3.org/1999/xlink" x="0px" y="0px"
	 viewBox="0 0 80 80" style="enable-background:new 0 0 80 80;" xml:space="preserve">
<style type="text/css">
	.st0{fill:url(#SVGID_1_);}
	.st1{fill:url(#SVGID_2_);}
	.st2{fill-rule:evenodd;clip-rule:evenodd;fill:#FFFFFF;}
</style>
<radialGradient id="SVGID_1_" cx="-505.2937" cy="574.2332" r="1" gradientTransform="matrix(4.854861e-15 -79.2859 -73.7421 -4.515402e-15 42366.4141 -39976.5)" gradientUnits="userSpaceOnUse">
	<stop  offset="0" style="stop-color:#FFDD55"/>
	<stop  offset="0.1" style="stop-color:#FFDD55"/>
	<stop  offset="0.5" style="stop-color:#FF543E"/>
	<stop  offset="1" style="stop-color:#C837AB"/>
</radialGradient>
<circle class="st0" cx="40" cy="40" r="40"/>
<radialGradient id="SVGID_2_" cx="-482.4306" cy="583.6788" r="1" gradientTransform="matrix(6.9563 34.7517 143.2483 -28.6743 -80268.4609 33507.6172)" gradientUnits="userSpaceOnUse">
	<stop  offset="0" style="stop-color:#3771C8"/>
	<stop  offset="0.128" style="stop-color:#3771C8"/>
	<stop  offset="1" style="stop-color:#6600FF;stop-opacity:0"/>
</radialGradient>
<circle class="st1" cx="40" cy="40" r="40"/>
<path class="st2" d="M20.5,40c0-8.1,0-12.1,1.9-15c0.9-1.3,2-2.4,3.2-3.3c2.9-1.9,6.9-1.9,14.9-1.9s12,0,14.9,1.9
	c1.3,0.9,2.4,2,3.2,3.3c1.9,2.9,1.9,6.9,1.9,15s0,12.1-1.9,15c-0.9,1.3-2,2.4-3.2,3.3c-2.9,1.9-6.9,1.9-14.9,1.9s-12,0-14.9-1.9
	c-1.3-0.9-2.4-2-3.2-3.3C20.5,52.1,20.5,48.1,20.5,40z M50.9,40c0,5.8-4.6,10.5-10.4,10.5S30.1,45.8,30.1,40
	c0-5.8,4.6-10.5,10.4-10.5S50.9,34.2,50.9,40z M40.5,46.9c3.8,0,6.9-3.1,6.9-6.9s-3.1-6.9-6.9-6.9c-3.8,0-6.9,3.1-6.9,6.9
	S36.7,46.9,40.5,46.9z M51.3,31.5c1.3,0,2.4-1.1,2.4-2.5s-1.1-2.5-2.4-2.5s-2.4,1.1-2.4,2.5S49.9,31.5,51.3,31.5z"/>
</svg>
