<svg width="80" height="80" viewBox="0 0 80 80" fill="none" xmlns="http://www.w3.org/2000/svg">
<circle cx="40" cy="40" r="40" fill="#00ACEE"/>
<path d="M45.6939 26.1736V26.1675H47.2814L47.8615 26.2842C48.2482 26.3599 48.5993 26.4592 48.9148 26.582C49.2303 26.7048 49.5356 26.8481 49.8307 27.0119C50.1258 27.1756 50.3934 27.3425 50.6336 27.5124C50.8718 27.6802 51.0855 27.8583 51.2747 28.0466C51.462 28.237 51.754 28.2861 52.1509 28.194C52.5478 28.1019 52.9752 27.974 53.4332 27.8102C53.8911 27.6465 54.344 27.4622 54.7917 27.2575C55.2395 27.0528 55.5123 26.9228 55.61 26.8676C55.7056 26.8103 55.7565 26.7796 55.7626 26.7754L55.7687 26.7662L55.7992 26.7509L55.8298 26.7355L55.8603 26.7202L55.8908 26.7048L55.8969 26.6956L55.9061 26.6895L55.9153 26.6833L55.9214 26.6741L55.9519 26.6649L55.9824 26.6588L55.9763 26.7048L55.9671 26.7509L55.9519 26.7969L55.9366 26.843L55.9214 26.8737L55.9061 26.9044L55.8908 26.9505C55.8807 26.9812 55.8705 27.0221 55.8603 27.0733C55.8501 27.1245 55.7534 27.3291 55.5703 27.6874C55.3871 28.0456 55.1581 28.409 54.8833 28.7774C54.6086 29.1459 54.3623 29.4242 54.1445 29.6126C53.9247 29.803 53.7792 29.936 53.7079 30.0118C53.6367 30.0895 53.5502 30.1612 53.4484 30.2267L53.2958 30.328L53.2653 30.3434L53.2347 30.3587L53.2287 30.3679L53.2195 30.3741L53.2103 30.3802L53.2042 30.3894L53.1737 30.4048L53.1431 30.4201L53.1371 30.4293L53.1279 30.4355L53.1187 30.4416L53.1126 30.4508L53.1065 30.4601L53.0973 30.4662L53.0882 30.4723L53.0821 30.4815H53.2347L54.0896 30.2973C54.6595 30.1745 55.2039 30.0261 55.7229 29.8521L56.5472 29.5757L56.6388 29.545L56.6846 29.5297L56.7151 29.5143L56.7457 29.499L56.7762 29.4836L56.8067 29.4683L56.8678 29.4591L56.9288 29.4529V29.5143L56.9136 29.5205L56.8983 29.5297L56.8922 29.5389L56.883 29.545L56.8739 29.5512L56.8678 29.5604L56.8617 29.5696L56.8525 29.5757L56.8433 29.5819L56.8372 29.5911L56.8312 29.6003L56.822 29.6065L56.8067 29.6372L56.7915 29.6679L56.7823 29.674C56.7782 29.6801 56.649 29.8541 56.3946 30.196C56.1402 30.5399 56.0028 30.7139 55.9824 30.718C55.9621 30.7241 55.9336 30.7548 55.8969 30.8101C55.8623 30.8674 55.6466 31.0956 55.2497 31.4948C54.8528 31.894 54.4641 32.2491 54.0835 32.5603C53.7009 32.8735 53.5075 33.2583 53.5034 33.7148C53.4973 34.1692 53.4739 34.683 53.4332 35.2562C53.3925 35.8294 53.3162 36.4486 53.2042 37.1138C53.0923 37.7791 52.9193 38.5314 52.6852 39.3707C52.4512 40.2099 52.1662 41.0287 51.8304 41.8271C51.4945 42.6254 51.1434 43.3418 50.7771 43.9764C50.4107 44.611 50.0749 45.1484 49.7696 45.5884C49.4643 46.0285 49.1539 46.4431 48.8384 46.832C48.523 47.2209 48.1241 47.659 47.6417 48.1462C47.1573 48.6313 46.8927 48.8974 46.8479 48.9445C46.8011 48.9896 46.6017 49.1574 46.2495 49.4481C45.8995 49.7408 45.5229 50.0335 45.1199 50.3262C44.719 50.6169 44.3506 50.8595 44.0147 51.054C43.6789 51.2484 43.2739 51.4705 42.7996 51.7203C42.3275 51.972 41.8166 52.2054 41.267 52.4203C40.7175 52.6353 40.1374 52.8348 39.5268 53.0191C38.9163 53.2033 38.326 53.3466 37.7561 53.4489C37.1863 53.5513 36.54 53.6383 35.8175 53.7099L34.7337 53.8174V53.8328H32.7492V53.8174L32.4897 53.8021C32.3167 53.7918 32.1743 53.7816 32.0623 53.7714C31.9504 53.7611 31.528 53.7048 30.7953 53.6025C30.0626 53.5001 29.4876 53.3978 29.0704 53.2954C28.6532 53.1931 28.0324 52.9986 27.2081 52.712C26.3838 52.4255 25.6785 52.1358 25.0924 51.8431C24.5082 51.5524 24.1419 51.3682 23.9933 51.2904C23.8467 51.2146 23.6819 51.1205 23.4987 51.0079L23.2239 50.839L23.2179 50.8298L23.2087 50.8237L23.1995 50.8175L23.1934 50.8083L23.1629 50.793L23.1323 50.7776L23.1263 50.7684L23.1171 50.7623L23.1079 50.7561L23.1018 50.7469L23.0957 50.7377L23.0866 50.7316H23.0713V50.6701L23.1018 50.6763L23.1323 50.6855L23.2697 50.7008C23.3613 50.7111 23.6107 50.7264 24.0177 50.7469C24.4248 50.7674 24.8573 50.7674 25.3152 50.7469C25.7732 50.7264 26.2413 50.6804 26.7196 50.6087C27.1979 50.5371 27.7627 50.4143 28.414 50.2403C29.0653 50.0663 29.6637 49.8595 30.2092 49.62C30.7526 49.3785 31.1393 49.1984 31.3693 49.0796C31.5973 48.9629 31.9453 48.7459 32.4134 48.4287L33.1156 47.9527L33.1217 47.9435L33.1309 47.9374L33.14 47.9312L33.1461 47.922L33.1522 47.9128L33.1614 47.9067L33.1706 47.9005L33.1767 47.8913L33.2072 47.8821L33.2377 47.876L33.2438 47.8453L33.253 47.8146L33.2622 47.8084L33.2682 47.7992L33.024 47.7839C32.8612 47.7736 32.7034 47.7634 32.5508 47.7532C32.3981 47.7429 32.159 47.6969 31.8333 47.615C31.5077 47.5331 31.1566 47.4103 30.7801 47.2465C30.4035 47.0828 30.0372 46.8883 29.681 46.6631C29.3248 46.438 29.0673 46.2506 28.9086 46.1012C28.7519 45.9538 28.5483 45.745 28.298 45.4748C28.0497 45.2026 27.8339 44.9232 27.6508 44.6366C27.4676 44.35 27.2926 44.0194 27.1257 43.6448L26.8722 43.086L26.857 43.0399L26.8417 42.9939L26.8326 42.9632L26.8265 42.9325L26.8722 42.9386L26.918 42.9478L27.2539 42.9939C27.4778 43.0246 27.8289 43.0348 28.3071 43.0246C28.7855 43.0143 29.1162 42.9939 29.2994 42.9632C29.4825 42.9325 29.5945 42.912 29.6352 42.9018L29.6963 42.8864L29.7726 42.871L29.8489 42.8557L29.855 42.8465L29.8642 42.8403L29.8734 42.8342L29.8794 42.825L29.8184 42.8096L29.7573 42.7943L29.6963 42.7789L29.6352 42.7636L29.5741 42.7482C29.5334 42.738 29.4622 42.7175 29.3604 42.6868C29.2587 42.6561 28.9839 42.5435 28.5361 42.3491C28.0884 42.1546 27.7322 41.9652 27.4676 41.781C27.2023 41.5963 26.9494 41.3942 26.7104 41.1761C26.4723 40.955 26.2108 40.6705 25.9258 40.3225C25.6409 39.9745 25.3865 39.5703 25.1626 39.1097C24.9387 38.6491 24.7708 38.209 24.6588 37.7894C24.5473 37.3722 24.4738 36.9457 24.4391 36.5151L24.3841 35.8703L24.4146 35.8764L24.4451 35.8856L24.4757 35.901L24.5062 35.9163L24.5367 35.9317L24.5672 35.9471L25.0405 36.162C25.356 36.3053 25.7477 36.4281 26.2159 36.5304C26.684 36.6328 26.9638 36.6891 27.0554 36.6993L27.1928 36.7147H27.4676L27.4615 36.7055L27.4523 36.6993L27.4432 36.6932L27.437 36.684L27.431 36.6748L27.4218 36.6686L27.4126 36.6625L27.4065 36.6533L27.376 36.6379L27.3455 36.6226L27.3394 36.6134L27.3302 36.6072L27.321 36.6011L27.3149 36.5919L27.2844 36.5765L27.2539 36.5612L27.2478 36.5519C27.2417 36.5478 27.1542 36.4823 26.9852 36.3554C26.8183 36.2265 26.6433 36.0596 26.4601 35.8549C26.2769 35.6502 26.0937 35.4353 25.9106 35.2101C25.727 34.9845 25.5636 34.743 25.4221 34.4886C25.2796 34.2327 25.129 33.9072 24.9702 33.5121C24.8135 33.1191 24.6945 32.723 24.613 32.3239C24.5317 31.9247 24.4859 31.5306 24.4757 31.1417C24.4655 30.7528 24.4757 30.4201 24.5062 30.1438C24.5367 29.8674 24.5978 29.5553 24.6894 29.2073C24.781 28.8593 24.9133 28.4908 25.0863 28.1019L25.3458 27.5185L25.361 27.4724L25.3763 27.4264L25.3855 27.4202L25.3916 27.411L25.3977 27.4018L25.4068 27.3957L25.416 27.4018L25.4221 27.411L25.4282 27.4202L25.4373 27.4264L25.4465 27.4325L25.4526 27.4417L25.4587 27.451L25.4679 27.4571L25.4831 27.4878L25.4984 27.5185L25.5076 27.5246L25.5137 27.5339L25.9258 27.9944C26.2006 28.3015 26.5263 28.6444 26.9028 29.0231C27.2793 29.4017 27.4879 29.5983 27.5286 29.6126C27.5694 29.629 27.6202 29.676 27.6813 29.7538C27.7423 29.8296 27.9459 30.0107 28.2919 30.2973C28.6379 30.5839 29.0908 30.9165 29.6505 31.2952C30.2102 31.6739 30.831 32.0475 31.5128 32.416C32.1946 32.7844 32.9273 33.1171 33.7109 33.4139C34.4945 33.7107 35.0441 33.9052 35.3595 33.9973C35.675 34.0894 36.2144 34.2071 36.9776 34.3504C37.7409 34.4937 38.3159 34.5858 38.7025 34.6267C39.0893 34.6677 39.3539 34.6912 39.4963 34.6974L39.71 34.7035L39.704 34.6574L39.6948 34.6114L39.6337 34.2276C39.593 33.9717 39.5726 33.6135 39.5726 33.1529C39.5726 32.6923 39.6083 32.2676 39.6795 31.8786C39.7508 31.4897 39.8576 31.0956 40.0001 30.6965C40.1425 30.2973 40.282 29.9769 40.4183 29.7354C40.5567 29.4959 40.7379 29.2226 40.9618 28.9156C41.1857 28.6085 41.4757 28.2913 41.8319 27.9637C42.188 27.6362 42.5951 27.3445 43.053 27.0886C43.511 26.8328 43.9333 26.6383 44.32 26.5052C44.7067 26.3722 45.0324 26.2852 45.297 26.2442C45.5616 26.2033 45.6939 26.1798 45.6939 26.1736Z" fill="white"/>
</svg>
